<?xml version="1.0" standalone="no"?>
<!DOCTYPE svg PUBLIC "-//W3C//DTD SVG 20010904//EN"
 "http://www.w3.org/TR/2001/REC-SVG-20010904/DTD/svg10.dtd">
<svg version="1.0" xmlns="http://www.w3.org/2000/svg"
 width="300.000000pt" height="99.000000pt" viewBox="0 0 300.000000 99.000000"
 preserveAspectRatio="xMidYMid meet">
<metadata>
Created by potrace 1.10, written by Peter Selinger 2001-2011
</metadata>
<g transform="translate(0.000000,99.000000) scale(0.100000,-0.100000)"
fill="#000000" stroke="none">
<path d="M198 853 c-17 -4 -18 -30 -18 -363 l0 -359 57 -11 c84 -18 228 -9
279 17 52 27 108 89 125 139 8 22 14 75 14 119 -1 145 -65 236 -178 251 -52 7
-131 -16 -141 -41 -15 -40 -21 -3 -18 114 3 127 3 128 -20 135 -25 6 -73 6
-100 -1z m66 -39 c13 -5 16 -23 16 -95 0 -89 11 -134 36 -143 8 -3 33 4 56 14
55 25 101 25 152 0 59 -29 88 -85 94 -181 4 -66 1 -84 -21 -131 -43 -94 -114
-131 -253 -130 -123 0 -124 1 -125 130 -2 259 1 524 6 533 7 11 17 11 39 3z"/>
<path d="M352 550 c-51 -31 -69 -84 -71 -204 -2 -90 1 -105 19 -129 18 -23 29
-27 71 -27 77 0 132 37 163 111 19 46 13 150 -11 191 -39 67 -115 92 -171 58z
m101 -31 c34 -15 49 -45 54 -111 10 -104 -33 -172 -112 -179 -79 -6 -75 -13
-75 122 0 120 0 121 29 150 31 31 64 36 104 18z"/>
<path d="M1340 790 l0 -71 78 3 77 3 0 65 0 65 -77 3 -78 3 0 -71z m108 28
c32 -32 -10 -78 -50 -56 -18 9 -25 48 -11 61 11 11 48 8 61 -5z"/>
<path d="M1658 853 c-17 -4 -18 -27 -18 -301 0 -165 5 -313 10 -333 22 -79
125 -127 218 -103 19 6 22 13 22 60 l0 53 -42 3 c-67 5 -68 11 -68 334 l0 282
-22 6 c-26 6 -74 6 -100 -1z m77 -45 c3 -7 6 -130 7 -273 3 -237 5 -263 22
-292 11 -18 32 -37 47 -43 50 -21 42 -50 -13 -50 -37 0 -90 33 -103 64 -18 42
-21 571 -4 592 14 17 38 18 44 2z"/>
<path d="M2005 672 c-49 -64 -91 -122 -93 -129 -2 -9 8 -13 32 -13 l36 0 0
-147 c0 -121 3 -154 18 -183 33 -67 119 -100 217 -85 l46 6 -3 52 -3 52 -52 3
c-77 4 -83 17 -83 174 l0 128 59 0 c57 0 60 1 66 29 3 16 3 41 -1 56 -6 26 -9
27 -65 23 l-59 -3 0 78 c0 55 -4 77 -12 76 -7 0 -53 -53 -103 -117z m100 -52
c9 -8 32 -16 52 -19 52 -9 54 -29 3 -37 -75 -12 -83 -29 -78 -177 5 -124 6
-128 33 -157 16 -16 44 -33 62 -36 74 -14 46 -48 -33 -40 -106 9 -122 37 -123
216 -1 117 -4 139 -21 162 -11 15 -20 31 -20 35 0 4 21 35 47 68 l47 60 8 -31
c4 -18 15 -37 23 -44z"/>
<path d="M379 778 c-1 -2 -2 -20 -3 -40 l-3 -38 374 0 373 0 0 40 0 40 -370 0
c-203 0 -370 -1 -371 -2z m710 -33 c2 -3 2 -7 0 -9 -2 -3 -157 -6 -344 -7
-240 -2 -340 1 -343 9 -2 6 9 12 25 14 43 5 656 -2 662 -7z"/>
<path d="M2622 758 c-8 -8 -12 -53 -12 -135 0 -111 2 -123 19 -133 11 -5 67
-10 125 -10 109 0 136 9 136 47 0 21 -219 243 -240 243 -9 0 -21 -5 -28 -12z
m130 -125 c54 -54 98 -102 98 -108 0 -6 -38 -9 -102 -8 l-103 2 -3 105 c-1 59
1 106 5 106 4 0 52 -44 105 -97z"/>
<path d="M2409 623 c-60 -59 -112 -115 -115 -126 -3 -10 1 -26 10 -36 15 -16
15 -19 1 -31 -8 -7 -15 -18 -15 -24 0 -18 223 -236 241 -236 9 0 22 7 30 16
11 14 13 14 21 0 20 -35 53 -17 161 92 150 150 145 172 -34 172 -80 0 -106 -3
-120 -16 -16 -15 -20 -15 -33 -1 -14 13 -14 16 -1 27 12 10 15 39 15 131 0
107 -2 119 -19 129 -11 5 -23 10 -27 10 -4 0 -56 -48 -115 -107z m131 -39 l0
-104 -110 0 c-60 0 -110 1 -110 3 0 9 206 212 213 209 4 -2 7 -50 7 -108z m0
-274 c0 -60 -3 -110 -8 -110 -14 0 -213 206 -206 213 4 4 54 7 111 7 l103 0 0
-110z m280 103 c0 -10 -203 -213 -212 -213 -10 0 -11 204 -1 213 9 9 213 9
213 0z"/>
<path d="M760 463 c0 -98 5 -195 10 -215 14 -50 55 -97 105 -119 49 -23 203
-26 280 -6 l50 13 3 252 2 252 -70 0 -70 0 0 -204 0 -204 -31 -6 c-18 -3 -49
-1 -71 5 -60 16 -68 45 -68 244 l0 165 -70 0 -70 0 0 -177z m410 -77 c0 -110
-4 -206 -8 -212 -19 -28 -194 -36 -267 -12 -29 10 -46 24 -67 58 -26 43 -27
51 -28 175 -2 219 -3 205 24 205 14 0 27 -4 30 -8 3 -5 6 -68 7 -142 1 -154
12 -193 61 -233 58 -46 160 -36 174 18 2 11 7 94 9 185 2 91 4 168 4 172 1 3
9 8 19 10 39 9 42 -6 42 -216z"/>
<path d="M1295 606 c-11 -55 1 -76 41 -76 l35 0 -3 -205 c-3 -227 -7 -215 67
-215 80 0 75 -18 75 271 l0 259 -105 0 -104 0 -6 -34z m163 -18 c13 -13 18
-391 6 -422 -8 -20 -38 -21 -54 -2 -6 8 -11 32 -10 53 1 21 2 98 1 171 l-1
134 -31 29 c-17 16 -28 33 -24 39 9 14 98 13 113 -2z"/>
</g>
</svg>
